<svg preserveAspectRatio="true" width="499" height="198" viewBox="0 0 499 198" fill="none" xmlns="http://www.w3.org/2000/svg">
<circle cx="60.5826" cy="40.629" r="40.5983" fill="white"/>
<path d="M89.1663 92.0621C83.8718 95.4505 78.2757 96.3992 72.4736 96.6139C72.8999 98.48 73.0968 100.641 73.2614 102.041C73.8086 106.691 77.4245 113.283 79.441 117.54C80.5982 119.983 81.322 125.869 81.4671 128.481C81.9266 136.752 93.5476 146.426 98.5876 152.186C107.304 162.148 114.832 173.642 120.267 185.718C121.696 188.894 122.1 192.172 123.914 195.14C128.133 202.044 139.02 207.134 145.694 211.45C162.109 222.063 181.766 228.876 199.842 235.915C227.771 246.791 254.045 256.733 284.279 257.037C307.898 257.274 331.285 257.34 354.686 253.795C380.566 249.874 406.341 244.85 431.272 236.776C466.152 225.479 501.191 214.614 532.88 195.849L533.116 195.709C541.229 190.905 547.04 187.464 552.382 179.539C556.026 174.131 560.801 168.622 562.867 162.317C565.566 154.076 568.497 140.644 563.576 132.837C558.595 124.937 551.034 115.638 543.923 109.335C532.906 99.5699 521.259 89.9288 509.226 81.4251C497.495 73.135 484.632 65.9243 469.97 65.571C461.639 65.3702 453.281 65.571 444.948 65.571C431.812 65.571 419.347 62.662 406.554 59.6768L406.199 59.594C395.335 57.0591 384.588 52.7188 373.63 50.5272C360.059 47.8132 353.412 42.2451 342.681 33.66C340.905 32.2396 339.089 30.9384 337.059 29.8104C333.374 27.7634 328.993 28.2416 325.409 25.9609C321.49 23.4675 316.27 23.6309 311.581 23.6309C307.432 23.6309 300.537 22.2383 296.638 23.8335C291.498 25.9362 286.963 30.9323 282.506 34.1159C273.758 40.3646 271.086 45.2718 260.726 47.792C243.589 51.9603 226.421 55.4257 209.01 58.3277C190.185 61.4652 170.424 59.1888 151.215 59.1888C140.168 59.1888 129.525 66.8596 119.456 70.4842C113.757 72.536 108.879 78.0038 103.45 81.0199C98.105 83.9894 94.4221 88.6984 89.1663 92.0621Z" fill="url(#paint0_linear)"/>
<path d="M21.2912 68.3062C7.43312 81.7846 -7.39577 94.2154 -21.4115 107.539C-21.5872 108.768 -21.9794 109.884 -22.9789 110.702C-25.7126 112.939 -29.1529 114.147 -32.5015 115.008C-36.9326 116.147 -41.0675 115.959 -45.4178 117.591C-57.072 121.961 -64.3535 139.198 -68.7942 149.709L-68.9205 150.008C-73.8603 161.699 -74.2322 170.984 -67.1477 181.159C-62.8058 187.396 -56.1318 190.393 -49.9259 194.43C-35.5567 203.779 -21.1351 212.986 -6.66882 222.188C14.0609 235.373 34.4735 248.935 54.3165 263.419C68.6963 273.915 83.7992 283.93 99.9036 291.632C109.853 296.39 120.055 300.148 129.788 305.359C137.918 309.711 145.663 313.139 154.405 315.793C180.149 323.608 208.133 305.694 227.75 291.48C256.469 270.672 283.876 245.123 307.021 218.237C317.338 206.252 326.809 193.398 335.437 180.146C341.866 170.271 346.397 159.991 346.732 148.084C346.952 140.297 348.285 132.266 344.757 125.341C341.42 118.791 337.711 113.533 332.6 108.423C329.089 104.911 322.573 102.568 317.709 100.819L317.303 100.673C310.538 98.2374 303.607 95.1932 296.283 94.7973C284.531 94.1621 273.126 97.4819 261.332 97.4819C241.674 97.4819 217.241 97.0434 199.993 85.8319C195.271 82.7626 187.537 79.4347 182.163 77.9301C178.337 76.8588 174.887 75.1714 171.07 74.1818C158.864 71.0174 145.772 73.5394 133.435 73.7766C125.148 73.936 116.763 74.6883 108.363 74.6883C100.436 74.6883 91.8589 64.1733 86.0249 60.1005C82.0146 57.3009 79.063 54.0642 74.1722 52.8066C70.2374 51.7947 66.3485 51.8948 62.3196 51.8948C55.0227 51.8948 46.8332 52.6012 39.9313 55.0859C32.8415 57.6382 26.6897 63.0556 21.2912 68.3062Z" fill="url(#paint1_linear)"/>
<path d="M-5.96542 146.663C-75.2754 128.415 -84.7205 217.745 -108.089 241.462L-47.9239 296.186L594.01 301.627C570.92 227.476 627.702 32.7163 435.384 40.8778C362.989 43.9501 283.036 111.087 231.974 129.398C181.376 147.543 80.6721 169.473 -5.96542 146.663Z" fill="url(#paint2_linear)"/>
<defs>
<linearGradient id="paint0_linear" x1="313.364" y1="23.0679" x2="313.364" y2="257.132" gradientUnits="userSpaceOnUse">
<stop stop-color="#90A2CA"/>
<stop offset="1" stop-color="#C8CDDF"/>
</linearGradient>
<linearGradient id="paint1_linear" x1="137.301" y1="51.8921" x2="137.383" y2="164.935" gradientUnits="userSpaceOnUse">
<stop stop-color="#103991"/>
<stop offset="1" stop-color="#5A709E"/>
</linearGradient>
<linearGradient id="paint2_linear" x1="242.96" y1="40.6289" x2="242.96" y2="301.627" gradientUnits="userSpaceOnUse">
<stop stop-color="#10213D"/>
<stop offset="1" stop-color="#253454"/>
</linearGradient>
</defs>
</svg>
