<svg preserveAspectRatio="true" viewBox="0 0 498 187" fill="none" xmlns="http://www.w3.org/2000/svg">
<circle cx="497.851" cy="109.779" r="40.5983" fill="white"/>
<path d="M211.153 114.384C211.929 108.409 213.036 103.413 213.036 97.1712C213.036 93.7674 212.417 90.4459 211.664 87.2832C210.701 83.2372 209.939 79.0439 209.386 74.8134C208.72 69.7208 208.833 64.4034 208.328 59.3039C208.046 56.4609 208.014 53.4868 208.014 50.6061C208.014 49.7336 208.215 49.0423 208.223 48.0975C208.235 46.57 208.048 43.4234 208.537 42.0366C209.094 40.4561 208.502 36.0485 209.479 35.2798" stroke="url(#paint0_linear)" stroke-width="4.18539" stroke-linecap="round" stroke-linejoin="round"/>
<path d="M208.661 111.872C205.56 106.091 195.511 89.3842 200.672 80.6369C204.657 73.8834 211.413 70.9822 216.093 64.2635C221.32 56.7597 225.382 42.8967 225.382 32.5243C225.382 21.1802 217.022 12.4591 217.022 3.05225" stroke="url(#paint1_linear)" stroke-width="4.18539" stroke-linecap="round" stroke-linejoin="round"/>
<path d="M-7.86149 115.453C-34.2141 115.453 -60.5985 114.669 -86.9796 114.578C-87.0408 123.173 -87.9552 131.485 -87.9552 140.211C-87.9552 146.529 -85.1083 150.342 -83.2789 156.126C-82.37 159 -80.2738 160.683 -78.7115 163.249C-77.0878 165.916 -76.3634 168.706 -74.2528 171.157C-70.3091 175.738 -69.9373 181.819 -66.4228 186.582C-60.8988 194.067 -55.4929 201.211 -52.1223 209.669C-47.5687 221.096 -41.3787 232.32 -34.0156 242.482C-27.051 252.095 -20.9833 262.37 -9.87335 268.615C-0.242233 274.029 12.7094 278.053 24.0564 278.145C55.9562 278.402 88.1047 279.212 119.864 276.376C133.731 275.138 147.723 274.616 161.624 273.675C178.717 272.516 195.608 269.363 212.41 266.454C239.086 261.835 266.043 257.551 293.101 255.254C314.353 253.45 335.89 254.271 357.209 254.271C400.371 254.271 444.801 257.29 487.545 251.128C510.13 247.872 538.89 240.903 552.631 222.883C565.667 205.787 574.653 185.951 574.653 165.017C574.653 155.862 573.153 149.381 565.083 143.747C557.199 138.244 543.744 138.11 534.524 135.102C525.026 132.003 515.075 130.295 505.38 127.832C480.389 121.482 453.978 118.031 429.853 109.313C423.669 107.078 418.072 105.095 411.638 103.467C398.833 100.228 385.254 100.759 372.162 99.0956C355.283 96.9512 337.555 97.3532 320.451 97.741L319.201 97.7693C314.433 97.877 309.785 99.2672 305.009 99.5868C299.093 99.9827 292.992 100.515 287.12 101.306C267.868 103.9 248.873 106.611 229.375 106.611C199.332 106.611 169.698 110.148 139.602 110.148C111.33 110.148 83.5685 110.399 55.4305 111.916C34.1876 113.062 13.4959 115.453 -7.86149 115.453Z" fill="#31536C"/>
<path d="M49.1735 96.232H-82.3639C-78.4864 100.325 -76.8539 108.676 -76.8539 113.522C-76.8539 119.947 -77.7184 126.263 -77.7184 132.734C-77.7184 138.114 -77.7602 145.81 -75.317 150.697C-72.5365 156.258 -69.1315 160.976 -66.912 167.122C-61.2807 182.717 -60.7616 199.4 -54.2804 214.719C-51.0016 222.469 -45.1655 231.425 -38.4309 236.62C-32.8651 240.914 -28.0984 242.163 -21.2366 243.584C10.4048 250.137 42.1675 255.987 73.8603 262.411C104.744 268.672 134.738 271.242 166.22 269.568C205.864 267.459 244.683 257.937 284.226 255.831C325.278 253.645 365.938 256.81 406.699 261.403C427.863 263.787 448.696 265.135 470.001 264.765C493.955 264.348 513.393 258.584 533.303 244.929C548.006 234.845 561.456 223.202 574.704 211.309C579.321 207.164 587.224 202.026 590.265 196.324C591.123 194.716 583.078 193.154 582.581 193.058C535.273 183.886 488.767 171.252 441.472 161.935C404.675 154.686 369.363 143.982 333.544 133.124L332.255 132.734C305.774 124.707 279.151 119.126 251.903 114.387C184.932 102.74 117.169 96.232 49.1735 96.232Z" fill="#486E85"/>
<defs>
<linearGradient id="paint0_linear" x1="210.525" y1="35.2798" x2="210.525" y2="114.384" gradientUnits="userSpaceOnUse">
<stop stop-color="white" stop-opacity="0"/>
<stop offset="1" stop-color="white"/>
</linearGradient>
<linearGradient id="paint1_linear" x1="212.303" y1="3.05225" x2="212.303" y2="111.872" gradientUnits="userSpaceOnUse">
<stop stop-color="white" stop-opacity="0"/>
<stop offset="1" stop-color="white"/>
</linearGradient>
</defs>
</svg>
