<svg preserveAspectRatio="true" viewBox="0 0 498 165" fill="none" xmlns="http://www.w3.org/2000/svg">
<circle cx="473.578" cy="40.9034" r="40.5983" fill="white"/>
<path d="M-41.5519 99.522C-67.9046 99.522 -94.2889 98.7377 -120.67 98.6464C-120.731 107.242 -121.646 115.554 -121.646 124.279C-121.646 130.598 -118.799 134.411 -116.969 140.195C-116.06 143.069 -113.964 144.751 -112.402 147.318C-110.778 149.985 -110.054 152.775 -107.943 155.226C-103.999 159.807 -103.628 165.888 -100.113 170.65C-94.5893 178.136 -89.1833 185.279 -85.8128 193.738C-81.2591 205.165 -75.0691 216.389 -67.7061 226.551C-60.7414 236.164 -54.6737 246.439 -43.5638 252.684C-33.9327 258.098 -20.981 262.122 -9.63408 262.214C22.2657 262.471 54.4143 263.281 86.1738 260.445C100.041 259.207 114.032 258.685 127.933 257.743C145.027 256.585 161.917 253.432 178.719 250.523C205.395 245.904 232.353 241.62 259.411 239.323C280.663 237.519 302.199 238.34 323.519 238.34C366.68 238.34 411.11 241.358 453.854 235.197C476.439 231.941 505.199 224.971 518.941 206.951C531.977 189.856 540.962 170.02 540.962 149.086C540.962 139.931 539.462 133.45 531.392 127.816C523.508 122.312 510.054 122.178 500.834 119.171C491.336 116.072 481.384 114.364 471.689 111.901C446.698 105.551 420.288 102.1 396.163 93.3818C389.978 91.1468 384.382 89.1638 377.947 87.5363C365.143 84.2972 351.563 84.8276 338.472 83.1644C321.592 81.0201 303.865 81.422 286.76 81.8098L285.511 81.8381C280.742 81.9458 276.094 83.3361 271.319 83.6556C265.403 84.0515 259.302 84.5838 253.43 85.3749C234.178 87.9685 215.182 90.6801 195.684 90.6801C165.641 90.6801 136.008 94.2168 105.912 94.2168C77.64 94.2168 49.8781 94.4676 21.74 95.9852C0.497124 97.1309 -20.1945 99.522 -41.5519 99.522Z" fill="#31536C"/>
<path d="M85.5885 69.0005H-45.9489C-42.0713 73.0938 -40.4389 81.4442 -40.4389 86.2909C-40.4389 92.7153 -41.3034 99.0319 -41.3034 105.502C-41.3034 110.883 -41.3452 118.579 -38.902 123.465C-36.1214 129.026 -32.7164 133.745 -30.4969 139.891C-24.8656 155.485 -24.3465 172.168 -17.8654 187.487C-14.5865 195.237 -8.7505 204.193 -2.01589 209.389C3.5499 213.682 8.31661 214.932 15.1784 216.353C46.8198 222.906 78.5825 228.756 110.275 235.18C141.159 241.44 171.153 244.011 202.635 242.336C242.279 240.227 281.098 230.706 320.641 228.6C361.693 226.414 402.353 229.579 443.115 234.171C464.278 236.556 485.111 237.904 506.416 237.533C530.37 237.117 549.808 231.353 569.718 217.698C584.421 207.613 597.871 195.97 611.119 184.077C615.736 179.932 623.639 174.794 626.68 169.092C627.538 167.484 619.493 165.923 618.996 165.826C571.688 156.655 525.182 144.021 477.887 134.704C441.09 127.455 405.778 116.751 369.959 105.893L368.67 105.502C342.189 97.4758 315.566 91.8942 288.318 87.1554C221.347 75.5083 153.584 69.0005 85.5885 69.0005Z" fill="#486E85"/>
</svg>
