<svg preserveAspectRatio="true"  width="498" height="136" viewBox="0 0 498 136" fill="none" xmlns="http://www.w3.org/2000/svg">
<path d="M-69.0995 102.842C-74.0127 105.662 -79.2869 107.208 -84.7582 107.857C-84.881 111.254 -85.7007 114.923 -85.9635 118.515C-83.9383 120.78 -81.879 123.321 -79.9702 124.139C-71.5769 127.737 -75.4955 138.523 -78.1142 143.483C-81.9825 150.81 -91.5783 154.831 -94.818 163.013C-100.542 177.468 -104.489 191.045 -99.5905 206.165C-89.0716 238.634 -29.427 246.771 8.85141 252.665C52.2 259.34 100.876 256.957 145.035 254.794L146.724 254.711C189.034 252.64 238.996 252.85 277.703 239.273C305.323 229.585 338.789 221.109 355.388 201.701C366.124 189.149 378.19 177.576 378.19 162.269C378.19 139.306 360.517 127.124 345.313 108.701C327.264 86.8306 310.893 64.5681 293.478 42.5779C271.396 14.6933 223.144 38.4162 190.869 25.8379C184.788 23.4679 178.198 24.2337 174.166 19.1419C170.142 14.0606 164.709 10.3456 161.041 5.8429C153.694 -3.17763 134.314 2.8304 127.103 7.8889C122.272 11.2786 115.512 13.0311 110.4 16.2589C104.543 19.9569 101.581 25.5346 94.2262 28.3489C75.1206 35.6596 44.886 40.8008 30.9905 52.7149C14.9481 66.4699 1.03445 76.3705 -19.3859 86.288C-34.3771 93.5687 -55.1056 94.8099 -69.0995 102.842Z" fill="url(#paint0_linear)"/>
<path d="M157.6 64.3715C135.738 73.5393 111.623 80.3698 91.0073 92.6405C95.6488 92.5521 100.272 93.2788 102.882 95.7515C107.56 100.183 109.809 107.639 115.806 110.814C123.19 114.723 130.752 118.301 138.028 122.343C143.546 125.409 148.485 126.843 154.857 128.201C170.324 131.497 185.974 133.962 201.532 136.755C217.527 139.626 234.792 138.614 250.857 136.243C269.144 133.545 287.69 132.272 306.086 130.432C313.63 129.678 321.058 128.015 328.586 127.178C336.997 126.244 345.524 126.512 353.876 124.993C366.277 122.738 378.541 119.839 390.928 117.508C404.104 115.03 417.286 112.25 427.747 103.283C437.421 94.9912 447.02 82.0109 448.295 68.9739C449.154 60.1942 445.535 51.1069 439.462 44.8926C434.895 40.2193 429.199 38.8858 423.377 36.3386C406.075 28.7688 386.844 31.5951 369.032 25.8321C352.352 20.4358 337.555 11.6718 320.869 6.26028C313.927 4.00875 305.479 0.902695 298.229 0.402672C291.61 -0.0537718 284.828 0.356183 278.192 0.356183C267.848 0.356183 258.186 3.97546 248.021 4.54019C237.962 5.09901 227.683 12.142 220.871 19.1377C216.234 23.9006 210.346 30.064 206.832 35.6878C203.335 41.2816 199.8 43.9158 193.675 46.8451C188.713 49.2182 184.002 52.4446 179.31 55.2597C172.674 59.241 164.712 61.389 157.6 64.3715Z" fill="url(#paint1_linear)"/>
<path d="M246.813 129.409C240.105 134.392 234.23 140.03 227.78 145.285C229.786 147.132 230.608 149.426 231.937 151.817C234.247 155.976 238.335 156.511 242.443 157.675C245.258 158.472 247.689 160.724 250.579 160.975C254.189 161.289 257.724 161.859 261.364 161.859C270.858 161.859 279.782 161.719 288.235 166.461C297.771 171.811 307.897 178.474 318.453 181.524C326.398 183.819 335.701 185.924 342.999 189.938C354.373 196.194 366.13 199.437 379.4 199.515C404.999 199.665 430.476 197.23 455.549 192.17C466.402 189.979 477.316 187.675 487.905 184.452C496.29 181.9 505.241 180.531 513.381 177.247C525.318 172.43 537.189 164.623 543.924 153.398C549.752 143.684 551.434 133.92 554.756 123.366C556.681 117.252 558.103 109.894 558.103 103.469C558.103 88.1807 560.222 73.7029 558.754 58.3743C557.819 48.6109 555.423 38.8372 553.501 29.2257C551.108 17.2622 545.023 15.4185 533.836 15.4185C526.887 15.4185 518.741 17.6285 512.079 19.6025C504.214 21.9329 495.794 22.6011 487.812 24.6233C470.18 29.0901 451.675 34.4771 433.466 35.5482C418.737 36.4146 402.896 40.6813 389.255 46.0547C370.977 53.2553 354.042 63.5383 337.002 73.1578C324.281 80.3389 310.26 86.7562 298.695 95.7514C295.479 98.2525 291.499 99.5554 288.002 101.609C284.434 103.705 281.157 106.551 277.775 108.954C272.709 112.553 267.114 115.375 262.062 118.996C257.046 122.59 251.759 125.735 246.813 129.409Z" fill="url(#paint2_linear)"/>
<path d="M283.632 171.482C291.503 170.498 299.04 169.648 306.697 167.974C309.15 168.291 311.831 168.553 313.338 168.553C318.391 168.553 323.021 167.716 328.168 167.716C347.302 167.716 368.397 169.901 386.186 162.277L386.264 162.244C392.389 159.619 402.458 155.304 402.458 147.633C402.458 141.234 401.035 135.704 396.414 131.083C391.527 126.196 384.187 122.163 378.144 118.763C372.557 115.621 366.856 113.136 361.082 110.442C350.277 105.399 337.332 102.475 325.844 99.2844C317.624 97.0013 309.35 94.8174 301.205 92.404C289.089 88.8144 275.436 87.3061 262.944 85.2912C255.686 84.1205 248.143 83.8429 241.048 81.8975C235.346 80.3342 229.739 78.6033 223.847 78.1319C216.997 77.5839 210.759 75.668 203.717 75.668C196.995 75.668 190.433 75.0495 183.773 74.8312C173.384 74.4906 163.113 71.5974 153.091 69.1596C142.889 66.6782 132.016 68.9056 121.664 66.8351C113.91 65.2842 106.176 63.4218 98.5126 61.6283C93.1594 60.3755 87.9136 58.0952 82.3345 58.0952C60.6587 58.0952 39.9897 48.0536 18.3657 48.0536C1.75261 48.0536 -16.0637 45.0505 -30.3548 54.748C-36.7688 59.1003 -43.6136 62.3395 -48.2065 69.0201C-53.7823 77.1303 -59.1276 84.7451 -60.2472 94.8215C-61.901 109.706 -61.3258 125.602 -57.5973 140.102C-56.7448 143.417 -56.3263 147.175 -55.0869 150.329C-53.2584 154.984 -49.6295 157.306 -46.5329 161.022C-40.993 167.67 -31.8197 174.235 -23.8928 177.758L-23.8306 177.785C-15.5519 181.465 -8.28336 184.695 0.606876 186.312C9.73282 187.971 18.9002 188.636 28.2213 188.636C48.8034 188.636 69.8285 189.926 90.3306 188.218C102.578 187.197 114.905 188.504 127.15 187.613C140.081 186.673 153.09 185.991 165.922 184.08C190.575 180.408 215.664 181.727 240.397 178.595C254.863 176.762 269.134 173.294 283.632 171.482Z" fill="url(#paint3_linear)"/>
<defs>
<linearGradient id="paint0_linear" x1="122.861" y1="1.19238" x2="143" y2="129" gradientUnits="userSpaceOnUse">
<stop stop-color="#3F775E"/>
<stop offset="1" stop-color="#369C6F"/>
</linearGradient>
<linearGradient id="paint1_linear" x1="262.681" y1="0.187008" x2="307" y2="157" gradientUnits="userSpaceOnUse">
<stop stop-color="#387074"/>
<stop offset="1" stop-color="#2DA2AA"/>
</linearGradient>
<linearGradient id="paint2_linear" x1="392.34" y1="15.4185" x2="415" y2="189.5" gradientUnits="userSpaceOnUse">
<stop stop-color="#486E85"/>
<stop offset="0.0001" stop-color="#455B68"/>
<stop offset="1" stop-color="#356589"/>
</linearGradient>
<linearGradient id="paint3_linear" x1="170.666" y1="47.6143" x2="135.5" y2="166" gradientUnits="userSpaceOnUse">
<stop stop-color="#243E4B"/>
<stop offset="1" stop-color="#295870"/>
</linearGradient>
</defs>
</svg>
