<svg width="47" height="49" viewBox="0 0 47 49" fill="none" xmlns="http://www.w3.org/2000/svg">
<path d="M13.5296 38.1949L10.3941 36.9756L9.80161 37.6503L12.9371 38.8695L13.5296 38.1949Z" fill="white"/>
<path d="M11.1641 36.0991L14.2996 37.3184L14.8939 36.6417L11.7583 35.4224L11.1641 36.0991Z" fill="white"/>
<path d="M11.5424 40.4581L12.1675 39.7464L9.01507 38.5214C8.8049 38.6993 8.54971 38.8156 8.27781 38.8573C7.805 38.9316 7.36283 39.139 7.00316 39.4555C6.64348 39.7719 6.3812 40.1841 6.24706 40.6438C6.11293 41.1035 6.1125 41.5916 6.24583 42.0509C6.37916 42.5102 6.64072 42.9217 6.99985 43.237C7.35898 43.5524 7.80078 43.7586 8.27346 43.8315C8.74615 43.9044 9.23012 43.8409 9.66863 43.6485C10.1071 43.4561 10.482 43.1428 10.7493 42.7452C11.0166 42.3477 11.1652 41.8824 11.1778 41.404C11.1846 41.0559 11.3137 40.721 11.5424 40.4581Z" fill="white"/>
<path d="M24.3776 36.4561L19.5912 33.2927L40.5022 12.2684L39.9915 5.66634L33.3798 6.01368L15.2342 29.4684L11.4748 25.1252L7.9245 29.168L13.0965 32.5825C13.1877 32.6428 13.2649 32.7219 13.3228 32.8146C13.3808 32.9074 13.4181 33.0115 13.4324 33.12C13.4467 33.2284 13.4375 33.3388 13.4055 33.4435C13.3735 33.5483 13.3195 33.645 13.247 33.7272L12.5297 34.544L15.6692 35.7649C15.7442 35.693 15.833 35.637 15.9302 35.6004C16.0274 35.5638 16.131 35.5474 16.2346 35.5521C16.3383 35.5567 16.4398 35.5825 16.5332 35.6277C16.6265 35.6729 16.7096 35.7366 16.7774 35.815L20.83 40.4958L24.3776 36.4561ZM27.738 20.9337L18.0595 31.9549L16.9425 30.974L35.3443 10.0193C35.4643 9.88272 35.6334 9.79927 35.8146 9.7873C35.9958 9.77534 36.1741 9.83585 36.3104 9.95552L36.3916 10.0268C36.5279 10.1465 36.6109 10.3155 36.6224 10.4967C36.634 10.6779 36.5731 10.8564 36.4531 10.993L27.738 20.9337Z" fill="white"/>
</svg>
